<svg width="16" height="16" viewBox="0 0 16 16" fill="none" xmlns="http://www.w3.org/2000/svg">
<path d="M8 12C8.22667 12 8.4168 11.9232 8.5704 11.7696C8.724 11.616 8.80053 11.4261 8.8 11.2C8.8 10.9733 8.7232 10.7835 8.5696 10.6304C8.416 10.4773 8.22613 10.4005 8 10.4C7.77333 10.4 7.58347 10.4768 7.4304 10.6304C7.27733 10.784 7.20053 10.9739 7.2 11.2C7.2 11.4267 7.2768 11.6168 7.4304 11.7704C7.584 11.924 7.77387 12.0005 8 12ZM7.2 8.8H8.8V4H7.2V8.8ZM8 16C6.89333 16 5.85333 15.7899 4.88 15.3696C3.90667 14.9493 3.06 14.3795 2.34 13.66C1.62 12.94 1.05013 12.0933 0.6304 11.12C0.210667 10.1467 0.000533333 9.10667 0 8C0 6.89333 0.210133 5.85333 0.6304 4.88C1.05067 3.90667 1.62053 3.06 2.34 2.34C3.06 1.62 3.90667 1.05013 4.88 0.6304C5.85333 0.210667 6.89333 0.000533333 8 0C9.10667 0 10.1467 0.210133 11.12 0.6304C12.0933 1.05067 12.94 1.62053 13.66 2.34C14.38 3.06 14.9501 3.90667 15.3704 4.88C15.7907 5.85333 16.0005 6.89333 16 8C16 9.10667 15.7899 10.1467 15.3696 11.12C14.9493 12.0933 14.3795 12.94 13.66 13.66C12.94 14.38 12.0933 14.9501 11.12 15.3704C10.1467 15.7907 9.10667 16.0005 8 16Z" fill="#E6E1E6"/>
</svg>
