<svg width="20" height="20" viewBox="0 0 16 20" fill="none" xmlns="http://www.w3.org/2000/svg">
<path d="M8 20C7.45 20 6.97933 19.8043 6.588 19.413C6.19667 19.0217 6.00067 18.5507 6 18H10C10 18.55 9.80433 19.021 9.413 19.413C9.02167 19.805 8.55067 20.0007 8 20ZM4 17V15H12V17H4ZM4.25 14C3.1 13.3167 2.18733 12.4 1.512 11.25C0.836668 10.1 0.499334 8.85 0.500001 7.5C0.500001 5.41667 1.22933 3.646 2.688 2.188C4.14667 0.730001 5.91733 0.000667123 8 4.56621e-07C10.0827 -0.00066621 11.8537 0.728667 13.313 2.188C14.7723 3.64733 15.5013 5.418 15.5 7.5C15.5 8.85 15.1627 10.1 14.488 11.25C13.8133 12.4 12.9007 13.3167 11.75 14H4.25Z" fill="black"/>
</svg>
