<svg width="36" height="36" viewBox="0 0 36 36" fill="none" xmlns="http://www.w3.org/2000/svg">
<path d="M4.5 35.9999C3.2625 35.9999 2.2035 35.5597 1.323 34.6792C0.442503 33.7987 0.00150381 32.7389 3.81356e-06 31.4999C-0.00149618 30.261 0.439503 29.202 1.323 28.323C2.2065 27.444 3.2655 27.003 4.5 27C5.7345 26.997 6.79425 27.438 7.67925 28.323C8.56424 29.208 9.00449 30.267 8.99999 31.4999C8.99549 32.7329 8.55524 33.7927 7.67925 34.6792C6.80325 35.5657 5.7435 36.0059 4.5 35.9999ZM18 35.9999C16.7625 35.9999 15.7035 35.5597 14.823 34.6792C13.9425 33.7987 13.5015 32.7389 13.5 31.4999C13.4985 30.261 13.9395 29.202 14.823 28.323C15.7065 27.444 16.7655 27.003 18 27C19.2345 26.997 20.2942 27.438 21.1792 28.323C22.0642 29.208 22.5045 30.267 22.5 31.4999C22.4955 32.7329 22.0552 33.7927 21.1792 34.6792C20.3032 35.5657 19.2435 36.0059 18 35.9999ZM31.5 35.9999C30.2625 35.9999 29.2035 35.5597 28.323 34.6792C27.4425 33.7987 27.0015 32.7389 27 31.4999C26.9985 30.261 27.4395 29.202 28.323 28.323C29.2065 27.444 30.2655 27.003 31.5 27C32.7345 26.997 33.7942 27.438 34.6792 28.323C35.5642 29.208 36.0045 30.267 36 31.4999C35.9955 32.7329 35.5552 33.7927 34.6792 34.6792C33.8032 35.5657 32.7435 36.0059 31.5 35.9999ZM4.5 22.5C3.2625 22.5 2.2035 22.0597 1.323 21.1792C0.442503 20.2987 0.00150381 19.239 3.81356e-06 18C-0.00149618 16.761 0.439503 15.702 1.323 14.823C2.2065 13.944 3.2655 13.503 4.5 13.5C5.7345 13.497 6.79425 13.938 7.67925 14.823C8.56424 15.708 9.00449 16.767 8.99999 18C8.99549 19.233 8.55524 20.2927 7.67925 21.1792C6.80325 22.0657 5.7435 22.506 4.5 22.5ZM18 22.5C16.7625 22.5 15.7035 22.0597 14.823 21.1792C13.9425 20.2987 13.5015 19.239 13.5 18C13.4985 16.761 13.9395 15.702 14.823 14.823C15.7065 13.944 16.7655 13.503 18 13.5C19.2345 13.497 20.2942 13.938 21.1792 14.823C22.0642 15.708 22.5045 16.767 22.5 18C22.4955 19.233 22.0552 20.2927 21.1792 21.1792C20.3032 22.0657 19.2435 22.506 18 22.5ZM31.5 22.5C30.2625 22.5 29.2035 22.0597 28.323 21.1792C27.4425 20.2987 27.0015 19.239 27 18C26.9985 16.761 27.4395 15.702 28.323 14.823C29.2065 13.944 30.2655 13.503 31.5 13.5C32.7345 13.497 33.7942 13.938 34.6792 14.823C35.5642 15.708 36.0045 16.767 36 18C35.9955 19.233 35.5552 20.2927 34.6792 21.1792C33.8032 22.0657 32.7435 22.506 31.5 22.5ZM4.5 9C3.2625 9 2.2035 8.55975 1.323 7.67925C0.442503 6.79875 0.00150381 5.739 3.81356e-06 4.50001C-0.00149618 3.26101 0.439503 2.20201 1.323 1.32301C2.2065 0.444014 3.2655 0.0030152 4.5 1.52027e-05C5.7345 -0.00298479 6.79425 0.438014 7.67925 1.32301C8.56424 2.20801 9.00449 3.26701 8.99999 4.50001C8.99549 5.733 8.55524 6.79275 7.67925 7.67925C6.80325 8.56575 5.7435 9.006 4.5 9ZM18 9C16.7625 9 15.7035 8.55975 14.823 7.67925C13.9425 6.79875 13.5015 5.739 13.5 4.50001C13.4985 3.26101 13.9395 2.20201 14.823 1.32301C15.7065 0.444014 16.7655 0.0030152 18 1.52027e-05C19.2345 -0.00298479 20.2942 0.438014 21.1792 1.32301C22.0642 2.20801 22.5045 3.26701 22.5 4.50001C22.4955 5.733 22.0552 6.79275 21.1792 7.67925C20.3032 8.56575 19.2435 9.006 18 9ZM31.5 9C30.2625 9 29.2035 8.55975 28.323 7.67925C27.4425 6.79875 27.0015 5.739 27 4.50001C26.9985 3.26101 27.4395 2.20201 28.323 1.32301C29.2065 0.444014 30.2655 0.0030152 31.5 1.52027e-05C32.7345 -0.00298479 33.7942 0.438014 34.6792 1.32301C35.5642 2.20801 36.0045 3.26701 36 4.50001C35.9955 5.733 35.5552 6.79275 34.6792 7.67925C33.8032 8.56575 32.7435 9.006 31.5 9Z" fill="black"/>
</svg>
