<svg width="23" height="23" viewBox="0 0 17 23" fill="none" xmlns="http://www.w3.org/2000/svg">
<path d="M8.5 0C9.46615 0 10.3927 0.382612 11.0759 1.06367C11.7591 1.74472 12.1429 2.66842 12.1429 3.63158V10.8947C12.1429 11.8579 11.7591 12.7816 11.0759 13.4627C10.3927 14.1437 9.46615 14.5263 8.5 14.5263C7.53385 14.5263 6.60728 14.1437 5.92411 13.4627C5.24094 12.7816 4.85714 11.8579 4.85714 10.8947V3.63158C4.85714 2.66842 5.24094 1.74472 5.92411 1.06367C6.60728 0.382612 7.53385 0 8.5 0ZM17 10.8947C17 15.1679 13.8307 18.6905 9.71429 19.2837V23H7.28571V19.2837C3.16929 18.6905 0 15.1679 0 10.8947H2.42857C2.42857 12.5 3.06824 14.0395 4.20685 15.1746C5.34547 16.3097 6.88976 16.9474 8.5 16.9474C10.1102 16.9474 11.6545 16.3097 12.7931 15.1746C13.9318 14.0395 14.5714 12.5 14.5714 10.8947H17Z" fill="#AE81BB"/>
</svg>
