<svg width="35" height="35" viewBox="0 0 35 30" fill="none" xmlns="http://www.w3.org/2000/svg">
<path d="M13.7551 9.35882L5.22888 23.9516L3.23825 20.6168L5.53608 16.7086L0.972617 16.6967L0 15.0304L0.993193 13.326L7.48884 13.3463L9.82331 9.36888L13.7551 9.35882ZM14.4092 21.0241L31.4601 21.0249L29.533 24.396L24.9593 24.3835L27.2307 28.2951L26.2568 29.9607L24.2666 29.9629L21.0366 24.3934L16.3839 24.384L14.4092 21.0241ZM24.3334 14.6298L15.8087 0.0362781L19.7263 0L22.0021 3.92061L24.2942 0.0208075L26.2408 0.0215507L27.2378 1.72372L23.9722 7.27299L26.2903 11.2597L24.3334 14.6298ZM10.6781 15.37L19.2029 29.9637L15.2852 30L13.0093 26.0793L10.7172 29.9791L8.77065 29.9784L7.77369 28.2762L11.0394 22.7269L8.72115 18.7402L10.6781 15.37ZM20.5797 8.93895L3.52885 8.93814L5.45583 5.56704L10.0296 5.57954L7.75817 1.66792L8.73223 0.00229697L10.7223 0.00013504L13.9524 5.56967L18.6051 5.579L20.5797 8.93895ZM21.2449 20.638L29.7712 6.04528L31.7618 9.3801L29.464 13.2883L34.0275 13.3002L35 14.9665L34.0068 16.6708L27.5112 16.6505L25.1767 20.6279L21.2449 20.638Z" fill="#1F1F25"/>
</svg>
