<svg width="200" height="200" viewBox="0 0 200 200" fill="none" xmlns="http://www.w3.org/2000/svg">
<path d="M184 104V184C184 188.243 182.314 192.313 179.314 195.314C176.313 198.314 172.243 200 168 200H16C11.7565 200 7.68687 198.314 4.68629 195.314C1.68571 192.313 0 188.243 0 184V32C0 27.7565 1.68571 23.6869 4.68629 20.6863C7.68687 17.6857 11.7565 16 16 16H96C98.1217 16 100.157 16.8429 101.657 18.3431C103.157 19.8434 104 21.8783 104 24C104 26.1217 103.157 28.1566 101.657 29.6569C100.157 31.1571 98.1217 32 96 32H16V184H168V104C168 101.878 168.843 99.8434 170.343 98.3431C171.843 96.8429 173.878 96 176 96C178.122 96 180.157 96.8429 181.657 98.3431C183.157 99.8434 184 101.878 184 104ZM164 0C156.88 0 149.92 2.11136 143.999 6.06709C138.079 10.0228 133.465 15.6453 130.74 22.2234C128.016 28.8015 127.303 36.0399 128.692 43.0233C130.081 50.0066 133.509 56.4212 138.544 61.4558C143.579 66.4905 149.993 69.9192 156.977 71.3083C163.96 72.6973 171.198 71.9844 177.777 69.2597C184.355 66.5349 189.977 61.9207 193.933 56.0005C197.889 50.0804 200 43.1201 200 36C200 26.4522 196.207 17.2955 189.456 10.5442C182.705 3.79285 173.548 0 164 0Z" fill="black"/>
</svg>
