<svg width="20" height="20" viewBox="0 0 20 20" fill="none" xmlns="http://www.w3.org/2000/svg">
<g clip-path="url(#clip0_225_11)">
<path d="M2.92996 17.07C1.97486 16.1476 1.21303 15.0441 0.688943 13.8241C0.164853 12.604 -0.111009 11.2918 -0.122547 9.96403C-0.134085 8.63624 0.118932 7.31944 0.62174 6.09048C1.12455 4.86151 1.86708 3.745 2.80601 2.80607C3.74493 1.86714 4.86145 1.12461 6.09042 0.621801C7.31938 0.118993 8.63618 -0.134024 9.96397 -0.122486C11.2918 -0.110948 12.604 0.164914 13.824 0.689004C15.044 1.21309 16.1475 1.97492 17.07 2.93002C18.8915 4.81604 19.8995 7.34206 19.8767 9.96403C19.8539 12.586 18.8022 15.0941 16.9481 16.9482C15.0941 18.8023 12.5859 19.854 9.96397 19.8768C7.342 19.8995 4.81598 18.8916 2.92996 17.07ZM6.99996 6.00002V14H8.99996V6.00002H6.99996ZM11 6.00002V14H13V6.00002H11Z" fill="black"/>
</g>
<defs>
<clipPath id="clip0_225_11">
<rect width="20" height="20" fill="white"/>
</clipPath>
</defs>
</svg>
