<svg width="30" height="32" viewBox="0 0 30 32" fill="none" xmlns="http://www.w3.org/2000/svg">
<path d="M11.25 23.2L21.75 16L11.25 8.8V23.2ZM15 32C12.925 32 10.975 31.5797 9.15 30.7392C7.325 29.8987 5.7375 28.7589 4.3875 27.32C3.0375 25.88 1.969 24.1867 1.182 22.24C0.395 20.2933 0.001 18.2133 0 16C0 13.7867 0.394 11.7067 1.182 9.76C1.97 7.81333 3.0385 6.12 4.3875 4.68C5.7375 3.24 7.325 2.10027 9.15 1.2608C10.975 0.421333 12.925 0.00106667 15 0C17.075 0 19.025 0.420267 20.85 1.2608C22.675 2.10133 24.2625 3.24107 25.6125 4.68C26.9625 6.12 28.0315 7.81333 28.8195 9.76C29.6075 11.7067 30.001 13.7867 30 16C30 18.2133 29.606 20.2933 28.818 22.24C28.03 24.1867 26.9615 25.88 25.6125 27.32C24.2625 28.76 22.675 29.9003 20.85 30.7408C19.025 31.5813 17.075 32.0011 15 32Z" fill="black"/>
</svg>
