<svg width="35" height="35" viewBox="0 0 35 35" fill="none" xmlns="http://www.w3.org/2000/svg">
<path d="M24.15 7.93333L22.0354 10.0479C23.3204 10.8217 24.3837 11.9144 25.1222 13.22C25.8606 14.5257 26.2491 16 26.25 17.5C26.25 19.8206 25.3281 22.0462 23.6872 23.6872C22.0462 25.3281 19.8206 26.25 17.5 26.25C15.1793 26.25 12.9537 25.3281 11.3128 23.6872C9.67186 22.0462 8.74998 19.8206 8.74998 17.5C8.74998 14.3354 10.4417 11.5792 12.95 10.0333L10.85 7.93333C9.30108 9.00199 8.03516 10.4311 7.16124 12.0977C6.28732 13.7642 5.8316 15.6182 5.83332 17.5C5.83332 20.5942 7.06248 23.5617 9.25041 25.7496C11.4383 27.9375 14.4058 29.1667 17.5 29.1667C20.5942 29.1667 23.5616 27.9375 25.7496 25.7496C27.9375 23.5617 29.1667 20.5942 29.1667 17.5C29.1667 13.5333 27.1833 10.0333 24.15 7.93333ZM18.9583 4.375H16.0417V18.9583H18.9583" fill="#46263B"/>
</svg>
