<svg width="20" height="20" viewBox="0 0 16 20" fill="none" xmlns="http://www.w3.org/2000/svg">
<path d="M7.99991 4C10.0999 4 12.0999 4.8 13.5999 6.3C16.6999 9.4 16.6999 14.5 13.5999 17.6C11.7999 19.5 9.29991 20.2 6.89991 19.9L7.39991 17.9C9.09991 18.1 10.8999 17.5 12.1999 16.2C14.4999 13.9 14.4999 10.1 12.1999 7.7C11.0999 6.6 9.49991 6 7.99991 6V10.6L2.99991 5.6L7.99991 0.6V4ZM2.29991 17.6C-0.300093 15 -0.700093 11 1.09991 7.9L2.59991 9.4C1.49991 11.6 1.89991 14.4 3.79991 16.2C4.29991 16.7 4.89991 17.1 5.59991 17.4L4.99991 19.4C3.99991 19 3.09991 18.4 2.29991 17.6Z" fill="black"/>
</svg>
