<svg width="26" height="26" viewBox="0 0 26 26" fill="none" xmlns="http://www.w3.org/2000/svg">
<path d="M13 1.44444L9.98111 4.46333L13 7.48222M1.83444 0L0 1.83444L6.83222 8.66667H0V17.3333H5.77778L13 24.5556V14.8344L19.1389 20.9878C18.1711 21.7244 17.0878 22.3311 15.8889 22.6778V25.6678C17.8822 25.2056 19.6878 24.2956 21.2044 23.0533L24.1656 26L26 24.1656L13 11.1656M23.1111 13C23.1111 14.3578 22.8222 15.6289 22.3311 16.8133L24.5122 18.9944C25.4879 17.1469 25.9986 15.0894 26 13C26 6.81778 21.6667 1.64667 15.8889 0.332222V3.30778C20.0633 4.55 23.1111 8.42111 23.1111 13ZM19.5 13C19.5 10.4433 18.0556 8.24778 15.8889 7.17889V10.3711L19.4278 13.91C19.5 13.6211 19.5 13.3033 19.5 13Z" fill="#141317"/>
</svg>
