<svg width="212" height="212" viewBox="0 0 212 212" fill="none" xmlns="http://www.w3.org/2000/svg">
<path d="M208.37 123.4C206.831 121.857 204.9 120.763 202.786 120.235C200.672 119.706 198.454 119.763 196.37 120.4C181.811 124.795 166.333 125.159 151.584 121.452C136.834 117.746 123.367 110.108 112.615 99.3526C101.864 88.597 94.2312 75.1265 90.5304 60.3759C86.8296 45.6253 87.1992 30.1471 91.5999 15.59C92.2419 13.505 92.3034 11.2845 91.7777 9.16716C91.2521 7.04986 90.1592 5.11592 88.6165 3.57331C87.0739 2.03071 85.14 0.937809 83.0227 0.412152C80.9054 -0.113504 78.6849 -0.0520288 76.5999 0.589967C54.7038 7.31992 35.4887 20.7855 21.6899 39.07C9.62292 55.1089 2.26421 74.1932 0.439479 94.1814C-1.38526 114.17 2.39618 134.271 11.3595 152.23C20.3228 170.189 34.1133 185.294 51.1836 195.852C68.2539 206.41 87.9285 212.001 108 212C131.433 212.068 154.242 204.449 172.93 190.31C191.205 176.497 204.656 157.272 211.37 135.37C212.001 133.29 212.055 131.078 211.526 128.97C210.998 126.862 209.907 124.936 208.37 123.4ZM158.49 171.14C142.315 183.317 122.286 189.242 102.09 187.825C81.8934 186.408 62.8884 177.744 48.5722 163.428C34.2561 149.111 25.5923 130.106 24.1752 109.91C22.7581 89.7136 28.6832 69.685 40.8599 53.51C47.2667 45.0341 55.2075 37.8362 64.2699 32.29C64.0899 34.85 63.9999 37.42 63.9999 40C64.0317 68.6336 75.4204 96.0854 95.6674 116.332C115.914 136.579 143.366 147.968 172 148C174.58 148 177.15 147.91 179.71 147.73C174.166 156.794 166.967 164.735 158.49 171.14Z" fill="black"/>
</svg>
