<svg width="16" height="23" viewBox="0 0 16 23" fill="none" xmlns="http://www.w3.org/2000/svg">
<path d="M13.7143 23H2.28571C1.65714 23 1.11924 22.775 0.672 22.3249C0.224762 21.8749 0.000761905 21.3333 0 20.7V2.3C0 1.6675 0.224 1.12623 0.672 0.6762C1.12 0.226167 1.6579 0.000766667 2.28571 0H13.7143C14.3429 0 14.8811 0.2254 15.3291 0.6762C15.7771 1.127 16.0008 1.66827 16 2.3V20.7C16 21.3325 15.7764 21.8741 15.3291 22.3249C14.8819 22.7757 14.3436 23.0008 13.7143 23ZM8 8.05C8.62857 8.05 9.16686 7.82498 9.61486 7.37495C10.0629 6.92492 10.2865 6.38327 10.2857 5.75C10.2857 5.1175 10.0621 4.57623 9.61486 4.1262C9.16762 3.67617 8.62933 3.45077 8 3.45C7.37143 3.45 6.83352 3.6754 6.38628 4.1262C5.93905 4.577 5.71505 5.11827 5.71428 5.75C5.71428 6.3825 5.93828 6.92415 6.38628 7.37495C6.83428 7.82575 7.37219 8.05077 8 8.05ZM8 19.55C9.25714 19.55 10.3333 19.0996 11.2286 18.1987C12.1238 17.2979 12.5714 16.215 12.5714 14.95C12.5714 13.685 12.1238 12.6021 11.2286 11.7012C10.3333 10.8004 9.25714 10.35 8 10.35C6.74286 10.35 5.66667 10.8004 4.77143 11.7012C3.87619 12.6021 3.42857 13.685 3.42857 14.95C3.42857 16.215 3.87619 17.2979 4.77143 18.1987C5.66667 19.0996 6.74286 19.55 8 19.55ZM8 17.25C7.37143 17.25 6.83352 17.025 6.38628 16.5749C5.93905 16.1249 5.71505 15.5833 5.71428 14.95C5.71428 14.3175 5.93828 13.7762 6.38628 13.3262C6.83428 12.8762 7.37219 12.6508 8 12.65C8.62857 12.65 9.16686 12.8754 9.61486 13.3262C10.0629 13.777 10.2865 14.3183 10.2857 14.95C10.2857 15.5825 10.0621 16.1241 9.61486 16.5749C9.16762 17.0257 8.62933 17.2508 8 17.25Z" fill="#EBC9DD"/>
</svg>
