<svg width="22" height="22" viewBox="0 0 22 22" fill="none" xmlns="http://www.w3.org/2000/svg">
<path d="M10.2667 2.93333V0.733333C10.2667 0.538841 10.3439 0.352315 10.4815 0.214788C10.619 0.0772617 10.8055 0 11 0C11.1945 0 11.381 0.0772617 11.5185 0.214788C11.6561 0.352315 11.7333 0.538841 11.7333 0.733333V2.93333C11.7333 3.12783 11.6561 3.31435 11.5185 3.45188C11.381 3.5894 11.1945 3.66667 11 3.66667C10.8055 3.66667 10.619 3.5894 10.4815 3.45188C10.3439 3.31435 10.2667 3.12783 10.2667 2.93333ZM16.8667 11C16.8667 12.1603 16.5226 13.2946 15.878 14.2593C15.2333 15.2241 14.3171 15.9761 13.2451 16.4201C12.1731 16.8641 10.9935 16.9803 9.85547 16.7539C8.71745 16.5276 7.67211 15.9688 6.85164 15.1484C6.03117 14.3279 5.47243 13.2826 5.24606 12.1445C5.01969 11.0065 5.13587 9.82692 5.57991 8.75492C6.02394 7.68293 6.77589 6.76668 7.74065 6.12205C8.70542 5.47741 9.83968 5.13333 11 5.13333C12.5554 5.13503 14.0466 5.75367 15.1465 6.85352C16.2463 7.95336 16.865 9.44458 16.8667 11ZM15.4 11C15.4 10.1298 15.1419 9.27907 14.6585 8.55549C14.175 7.83191 13.4878 7.26796 12.6838 6.93493C11.8798 6.6019 10.9951 6.51477 10.1416 6.68455C9.28809 6.85432 8.50408 7.27338 7.88873 7.88873C7.27338 8.50408 6.85432 9.28809 6.68455 10.1416C6.51477 10.9951 6.6019 11.8798 6.93493 12.6838C7.26796 13.4878 7.83191 14.175 8.55549 14.6585C9.27907 15.1419 10.1298 15.4 11 15.4C12.1666 15.3988 13.285 14.9348 14.1099 14.1099C14.9348 13.285 15.3988 12.1666 15.4 11ZM4.6145 5.65217C4.7521 5.78977 4.93873 5.86707 5.13333 5.86707C5.32793 5.86707 5.51456 5.78977 5.65217 5.65217C5.78977 5.51456 5.86707 5.32793 5.86707 5.13333C5.86707 4.93873 5.78977 4.7521 5.65217 4.6145L4.1855 3.14783C4.0479 3.01023 3.86127 2.93293 3.66667 2.93293C3.47207 2.93293 3.28544 3.01023 3.14783 3.14783C3.01023 3.28544 2.93293 3.47207 2.93293 3.66667C2.93293 3.86127 3.01023 4.0479 3.14783 4.1855L4.6145 5.65217ZM4.6145 16.3478L3.14783 17.8145C3.01023 17.9521 2.93293 18.1387 2.93293 18.3333C2.93293 18.5279 3.01023 18.7146 3.14783 18.8522C3.28544 18.9898 3.47207 19.0671 3.66667 19.0671C3.86127 19.0671 4.0479 18.9898 4.1855 18.8522L5.65217 17.3855C5.7203 17.3174 5.77435 17.2365 5.81122 17.1475C5.8481 17.0584 5.86707 16.963 5.86707 16.8667C5.86707 16.7703 5.8481 16.6749 5.81122 16.5859C5.77435 16.4969 5.7203 16.416 5.65217 16.3478C5.58403 16.2797 5.50315 16.2257 5.41412 16.1888C5.3251 16.1519 5.22969 16.1329 5.13333 16.1329C5.03698 16.1329 4.94156 16.1519 4.85254 16.1888C4.76352 16.2257 4.68263 16.2797 4.6145 16.3478ZM16.8667 5.86667C16.963 5.86674 17.0584 5.84784 17.1474 5.81103C17.2364 5.77423 17.3173 5.72025 17.3855 5.65217L18.8522 4.1855C18.9898 4.0479 19.0671 3.86127 19.0671 3.66667C19.0671 3.47207 18.9898 3.28544 18.8522 3.14783C18.7146 3.01023 18.5279 2.93293 18.3333 2.93293C18.1387 2.93293 17.9521 3.01023 17.8145 3.14783L16.3478 4.6145C16.2452 4.71706 16.1752 4.84778 16.1469 4.99011C16.1185 5.13244 16.1331 5.27998 16.1886 5.41405C16.2442 5.54812 16.3382 5.66269 16.4589 5.74326C16.5796 5.82383 16.7215 5.86678 16.8667 5.86667ZM17.3855 16.3478C17.2479 16.2102 17.0613 16.1329 16.8667 16.1329C16.6721 16.1329 16.4854 16.2102 16.3478 16.3478C16.2102 16.4854 16.1329 16.6721 16.1329 16.8667C16.1329 17.0613 16.2102 17.2479 16.3478 17.3855L17.8145 18.8522C17.8826 18.9203 17.9635 18.9743 18.0525 19.0112C18.1416 19.0481 18.237 19.0671 18.3333 19.0671C18.4297 19.0671 18.5251 19.0481 18.6141 19.0112C18.7031 18.9743 18.784 18.9203 18.8522 18.8522C18.9203 18.784 18.9743 18.7031 19.0112 18.6141C19.0481 18.5251 19.0671 18.4297 19.0671 18.3333C19.0671 18.237 19.0481 18.1416 19.0112 18.0525C18.9743 17.9635 18.9203 17.8826 18.8522 17.8145L17.3855 16.3478ZM3.66667 11C3.66667 10.8055 3.5894 10.619 3.45188 10.4815C3.31435 10.3439 3.12783 10.2667 2.93333 10.2667H0.733333C0.538841 10.2667 0.352315 10.3439 0.214788 10.4815C0.0772617 10.619 0 10.8055 0 11C0 11.1945 0.0772617 11.381 0.214788 11.5185C0.352315 11.6561 0.538841 11.7333 0.733333 11.7333H2.93333C3.12783 11.7333 3.31435 11.6561 3.45188 11.5185C3.5894 11.381 3.66667 11.1945 3.66667 11ZM11 18.3333C10.8055 18.3333 10.619 18.4106 10.4815 18.5481C10.3439 18.6856 10.2667 18.8722 10.2667 19.0667V21.2667C10.2667 21.4612 10.3439 21.6477 10.4815 21.7852C10.619 21.9227 10.8055 22 11 22C11.1945 22 11.381 21.9227 11.5185 21.7852C11.6561 21.6477 11.7333 21.4612 11.7333 21.2667V19.0667C11.7333 18.8722 11.6561 18.6856 11.5185 18.5481C11.381 18.4106 11.1945 18.3333 11 18.3333ZM21.2667 10.2667H19.0667C18.8722 10.2667 18.6856 10.3439 18.5481 10.4815C18.4106 10.619 18.3333 10.8055 18.3333 11C18.3333 11.1945 18.4106 11.381 18.5481 11.5185C18.6856 11.6561 18.8722 11.7333 19.0667 11.7333H21.2667C21.4612 11.7333 21.6477 11.6561 21.7852 11.5185C21.9227 11.381 22 11.1945 22 11C22 10.8055 21.9227 10.619 21.7852 10.4815C21.6477 10.3439 21.4612 10.2667 21.2667 10.2667Z" fill="#7194B2"/>
</svg>
