<svg width="44" height="44" viewBox="0 0 44 44" fill="none" xmlns="http://www.w3.org/2000/svg">
<path d="M16 2H4C3.46957 2 2.96086 2.21071 2.58579 2.58579C2.21071 2.96086 2 3.46957 2 4V16C2 16.5304 2.21071 17.0391 2.58579 17.4142C2.96086 17.7893 3.46957 18 4 18H16C16.5304 18 17.0391 17.7893 17.4142 17.4142C17.7893 17.0391 18 16.5304 18 16V4C18 3.46957 17.7893 2.96086 17.4142 2.58579C17.0391 2.21071 16.5304 2 16 2ZM16 26H4C3.46957 26 2.96086 26.2107 2.58579 26.5858C2.21071 26.9609 2 27.4696 2 28V40C2 40.5304 2.21071 41.0391 2.58579 41.4142C2.96086 41.7893 3.46957 42 4 42H16C16.5304 42 17.0391 41.7893 17.4142 41.4142C17.7893 41.0391 18 40.5304 18 40V28C18 27.4696 17.7893 26.9609 17.4142 26.5858C17.0391 26.2107 16.5304 26 16 26ZM40 2H28C27.4696 2 26.9609 2.21071 26.5858 2.58579C26.2107 2.96086 26 3.46957 26 4V16C26 16.5304 26.2107 17.0391 26.5858 17.4142C26.9609 17.7893 27.4696 18 28 18H40C40.5304 18 41.0391 17.7893 41.4142 17.4142C41.7893 17.0391 42 16.5304 42 16V4C42 3.46957 41.7893 2.96086 41.4142 2.58579C41.0391 2.21071 40.5304 2 40 2Z" fill="black" stroke="black" stroke-width="4" stroke-linejoin="round"/>
<path d="M26 26H42M34 34H42M26 42H42" stroke="black" stroke-width="4" stroke-linecap="round" stroke-linejoin="round"/>
</svg>
