<svg width="22" height="22" viewBox="0 0 22 22" fill="none" xmlns="http://www.w3.org/2000/svg">
<path d="M2.44444 22C1.77222 22 1.19696 21.7608 0.718667 21.2826C0.24037 20.8043 0.000814815 20.2286 0 19.5556V12.2222H2.44444V19.5556H9.77778V22H2.44444ZM12.2222 22V19.5556H19.5556V12.2222H22V19.5556C22 20.2278 21.7608 20.8034 21.2826 21.2826C20.8043 21.7617 20.2286 22.0008 19.5556 22H12.2222ZM3.66667 17.1111L7.33333 12.2222L10.0833 15.8889L13.75 11L18.3333 17.1111H3.66667ZM0 9.77778V2.44444C0 1.77222 0.239556 1.19696 0.718667 0.718667C1.19778 0.24037 1.77304 0.000814815 2.44444 0H9.77778V2.44444H2.44444V9.77778H0ZM19.5556 9.77778V2.44444H12.2222V0H19.5556C20.2278 0 20.8034 0.239556 21.2826 0.718667C21.7617 1.19778 22.0008 1.77304 22 2.44444V9.77778H19.5556ZM15.2778 8.55555C14.7481 8.55555 14.3102 8.38241 13.9639 8.03611C13.6176 7.68981 13.4444 7.25185 13.4444 6.72222C13.4444 6.19259 13.6176 5.75463 13.9639 5.40833C14.3102 5.06204 14.7481 4.88889 15.2778 4.88889C15.8074 4.88889 16.2454 5.06204 16.5917 5.40833C16.938 5.75463 17.1111 6.19259 17.1111 6.72222C17.1111 7.25185 16.938 7.68981 16.5917 8.03611C16.2454 8.38241 15.8074 8.55555 15.2778 8.55555Z" fill="#1F1F25"/>
</svg>
