<svg width="23" height="18" viewBox="0 0 23 18" fill="none" xmlns="http://www.w3.org/2000/svg">
<path d="M22.6503 5.70008L12.6836 17.459C12.5395 17.6293 12.3586 17.7661 12.1539 17.8596C11.9492 17.9532 11.7259 18.0011 11.5 18C11.2747 18.0005 11.0522 17.9523 10.8482 17.8588C10.6442 17.7653 10.4639 17.6288 10.3203 17.459L0.349712 5.70008C0.218484 5.54671 0.120697 5.36872 0.0623571 5.17703C0.00401697 4.98534 -0.013644 4.78401 0.0104591 4.5854C0.0344395 4.3863 0.0991519 4.19396 0.200739 4.01985C0.302326 3.84574 0.438708 3.69342 0.601755 3.57197C3.73398 1.24108 7.56452 -0.0143571 11.5 0.000123882C15.4355 -0.0143571 19.266 1.24108 22.3982 3.57197C22.5613 3.69342 22.6977 3.84574 22.7993 4.01985C22.9008 4.19396 22.9656 4.3863 22.9895 4.5854C23.0136 4.78401 22.996 4.98534 22.9376 5.17703C22.8793 5.36872 22.7815 5.54671 22.6503 5.70008Z" fill="#7862BC"/>
</svg>
