<svg width="22" height="22" viewBox="0 0 22 18" fill="none" xmlns="http://www.w3.org/2000/svg">
<path fill-rule="evenodd" clip-rule="evenodd" d="M0.75595 3.94C3.94795 1.496 7.36795 0.25 10.999 0.25C14.63 0.25 18.05 1.496 21.243 3.94L21.257 3.95L21.27 3.961C21.822 4.426 21.923 5.243 21.445 5.808L11.99 16.981C11.8683 17.1252 11.7166 17.2411 11.5455 17.3205C11.3745 17.4 11.1881 17.4412 10.9995 17.4412C10.8108 17.4412 10.6244 17.4 10.4534 17.3205C10.2823 17.2411 10.1306 17.1252 10.009 16.981L0.54295 5.795L0.53195 5.781C0.0919502 5.209 0.16795 4.39 0.75595 3.94ZM11 4.25C11.1989 4.25 11.3896 4.32902 11.5303 4.46967C11.6709 4.61032 11.75 4.80109 11.75 5V7C11.75 7.19891 11.6709 7.38968 11.5303 7.53033C11.3896 7.67098 11.1989 7.75 11 7.75C10.801 7.75 10.6103 7.67098 10.4696 7.53033C10.329 7.38968 10.25 7.19891 10.25 7V5C10.25 4.80109 10.329 4.61032 10.4696 4.46967C10.6103 4.32902 10.801 4.25 11 4.25ZM11.568 11.5C11.6967 11.3515 11.7619 11.1584 11.7498 10.9623C11.7376 10.7661 11.6489 10.5826 11.5028 10.4512C11.3567 10.3198 11.1648 10.2509 10.9685 10.2595C10.7722 10.2681 10.587 10.3533 10.453 10.497L10.443 10.508C10.3147 10.6565 10.2497 10.8493 10.2619 11.0451C10.2742 11.2409 10.3626 11.4241 10.5084 11.5554C10.6541 11.6868 10.8455 11.7558 11.0415 11.7477C11.2375 11.7396 11.4226 11.655 11.557 11.512L11.568 11.5Z" fill="black"/>
</svg>
